<?xml version="1.0" encoding="utf-8"?>
<!-- Generator: Adobe Illustrator 17.1.0, SVG Export Plug-In . SVG Version: 6.00 Build 0)  -->
<!DOCTYPE svg PUBLIC "-//W3C//DTD SVG 1.1//EN" "http://www.w3.org/Graphics/SVG/1.1/DTD/svg11.dtd">
<svg version="1.1" xmlns="http://www.w3.org/2000/svg" xmlns:xlink="http://www.w3.org/1999/xlink" x="0px" y="0px"
	 viewBox="0 0 30 30" enable-background="new 0 0 30 30" xml:space="preserve">
<g id="lluvia">
	<text transform="matrix(1 0 0 1 -94.9556 0.6623)"><tspan x="0" y="0" font-family="'MyriadPro-Regular'" font-size="12">niebla</tspan><tspan x="0" y="14.4" font-family="'MyriadPro-Regular'" font-size="12">lluvia</tspan><tspan x="0" y="28.8" font-family="'MyriadPro-Regular'" font-size="12">nieve </tspan><tspan x="0" y="43.2" font-family="'MyriadPro-Regular'" font-size="12">tormenta</tspan></text>
	<g>
		<path fill="#010101" d="M9.093,16.781c0,0-2.349,1.75-0.88,2.31C9.683,19.649,9.093,16.781,9.093,16.781z"/>
		<path fill="#010101" d="M11.788,16.781c0,0-2.348,1.75-0.88,2.31S11.788,16.781,11.788,16.781z"/>
		<path fill="#010101" d="M14.483,16.781c0,0-2.348,1.75-0.88,2.31C15.073,19.649,14.483,16.781,14.483,16.781z"/>
		<path fill="#010101" d="M17.178,16.781c0,0-2.348,1.75-0.88,2.31C17.769,19.649,17.178,16.781,17.178,16.781z"/>
		<path fill="#010101" d="M19.873,16.781c0,0-2.348,1.75-0.88,2.31C20.464,19.649,19.873,16.781,19.873,16.781z"/>
		<path fill="#010101" d="M9.991,21.273c0,0-2.348,1.749-0.88,2.309C10.581,24.141,9.991,21.273,9.991,21.273z"/>
		<path fill="#010101" d="M12.686,21.273c0,0-2.348,1.749-0.88,2.309C13.277,24.141,12.686,21.273,12.686,21.273z"/>
		<path fill="#010101" d="M15.381,21.273c0,0-2.348,1.749-0.88,2.309C15.972,24.141,15.381,21.273,15.381,21.273z"/>
		<path fill="#010101" d="M18.076,21.273c0,0-2.348,1.749-0.88,2.309C18.667,24.141,18.076,21.273,18.076,21.273z"/>
		<path fill="#010101" d="M20.771,21.273c0,0-2.348,1.749-0.88,2.309C21.362,24.141,20.771,21.273,20.771,21.273z"/>
		<path fill="#010101" d="M10.89,25.765c0,0-2.349,1.749-0.88,2.309C11.48,28.632,10.89,25.765,10.89,25.765z"/>
		<path fill="#010101" d="M13.584,25.765c0,0-2.348,1.749-0.88,2.309C14.175,28.632,13.584,25.765,13.584,25.765z"/>
		<path fill="#010101" d="M16.28,25.765c0,0-2.349,1.749-0.88,2.309C16.87,28.632,16.28,25.765,16.28,25.765z"/>
		<path fill="#010101" d="M18.975,25.765c0,0-2.349,1.749-0.88,2.309S18.975,25.765,18.975,25.765z"/>
		<path fill="#010101" d="M22.568,16.781c0,0-2.348,1.75-0.88,2.31C23.159,19.649,22.568,16.781,22.568,16.781z"/>
	</g>
</g>
<g id="nieve">
	<path fill="#010101" d="M96.849,18.299l0.22,0.324h0.409l0.189-0.324l-0.199-0.345h-0.41L96.849,18.299z M97.017,20.906v-0.733
		l-0.41,0.23l-0.209-0.119v-0.258l0.607-0.345v-0.482l-0.441,0.283v-0.51l-0.421,0.243v0.692l-0.23,0.143l-0.195-0.129v-0.464
		l-0.639,0.361l-0.273-0.115V19.41l0.671-0.367l-0.42-0.211v-0.268l0.238-0.13l0.602,0.354l0.418-0.241l-0.01-0.008l-0.427-0.245
		l0.415-0.258l-0.417-0.241l-0.602,0.354l-0.226-0.112v-0.267l0.407-0.229l-0.65-0.353v-0.292l0.25-0.129l0.641,0.37v-0.472
		l0.193-0.13l0.237,0.137l-0.002,0.706l0.431,0.246l-0.002-0.499l0.452,0.243v-0.482l-0.607-0.346v-0.256l0.209-0.121l0.41,0.23
		v-0.732l0.234-0.154l0.237,0.154v0.732l0.424-0.235l0.213,0.141v0.23l-0.628,0.356v0.482l0.43-0.262v0.524l0.443-0.241v-0.755
		l0.213-0.099l0.224,0.099v0.483l0.659-0.356l0.231,0.14v0.273l-0.644,0.366l0.403,0.226v0.261l-0.209,0.116l-0.618-0.365
		l-0.428,0.272l0.413,0.258l-0.426,0.245l0.44,0.23l0.618-0.345l0.199,0.14v0.249l-0.388,0.218l0.618,0.367v0.288l-0.261,0.119
		l-0.607-0.345v0.457L98.59,20.05l-0.213-0.122v-0.694l-0.449-0.256v0.482l-0.43-0.262v0.482l0.607,0.345v0.273l-0.21,0.105
		l-0.407-0.23v0.733l-0.236,0.152L97.017,20.906z"/>
	<path fill="#010101" d="M25.626-33.662l1.089,1.608h2.028l0.936-1.608l-0.986-1.712h-2.032L25.626-33.662z M26.461-20.73v-3.636
		l-2.032,1.143l-1.035-0.592v-1.281l3.013-1.712v-2.39l-2.186,1.405v-2.532l-2.089,1.204v3.433l-1.143,0.708l-0.966-0.639v-2.301
		l-3.171,1.789l-1.354-0.57v-1.451l3.328-1.82l-2.082-1.046v-1.328l1.181-0.647l2.986,1.758l2.074-1.197l-0.05-0.038l-2.12-1.216
		l2.059-1.277l-2.066-1.197l-2.985,1.754l-1.12-0.558v-1.324l2.021-1.135l-3.225-1.751v-1.451l1.239-0.638l3.178,1.835v-2.339
		l0.958-0.646l1.174,0.677l-0.008,3.501l2.135,1.22l-0.007-2.474l2.239,1.204v-2.39l-3.013-1.716v-1.27l1.035-0.6l2.032,1.143
		v-3.629l1.162-0.762l1.173,0.762v3.629l2.105-1.166l1.059,0.7v1.143l-3.117,1.766v2.39l2.132-1.301v2.601l2.197-1.197v-3.744
		l1.058-0.493l1.112,0.493v2.394l3.27-1.766l1.143,0.697v1.354l-3.194,1.816l1.997,1.119v1.293l-1.035,0.573l-3.066-1.812
		l-2.12,1.347l2.051,1.278l-2.112,1.216l2.182,1.143l3.066-1.713l0.985,0.697v1.235l-1.924,1.081l3.063,1.82v1.428l-1.297,0.592
		l-3.009-1.713v2.266l-1.081,0.604l-1.058-0.604v-3.44l-2.228-1.269v2.39l-2.132-1.301v2.39l3.013,1.712v1.355l-1.04,0.519
		l-2.02-1.143v3.636l-1.173,0.754L26.461-20.73z"/>
	<path fill="#010101" d="M93.626,24.278l0.22,0.324h0.409l0.189-0.324l-0.199-0.345h-0.41L93.626,24.278z M93.794,26.886v-0.733
		l-0.41,0.23l-0.209-0.119v-0.258l0.607-0.345v-0.482l-0.441,0.283v-0.51l-0.421,0.243v0.692l-0.23,0.143L92.497,25.9v-0.464
		l-0.639,0.361l-0.273-0.115v-0.293l0.671-0.367l-0.42-0.211v-0.268l0.238-0.13l0.602,0.354l0.418-0.241l-0.01-0.008l-0.427-0.245
		l0.415-0.258l-0.417-0.241l-0.602,0.354l-0.226-0.112v-0.267l0.407-0.229l-0.65-0.353v-0.292l0.25-0.129l0.641,0.37v-0.472
		l0.193-0.13l0.237,0.137l-0.002,0.706l0.431,0.246l-0.001-0.499l0.452,0.243v-0.482l-0.607-0.346v-0.256l0.209-0.121l0.41,0.23
		v-0.732l0.234-0.154l0.237,0.154v0.732l0.424-0.235l0.213,0.141v0.23l-0.628,0.356v0.482l0.43-0.262v0.524l0.443-0.241v-0.755
		l0.213-0.099l0.224,0.099v0.483l0.659-0.356l0.231,0.14v0.273l-0.644,0.366l0.403,0.226v0.261l-0.209,0.116l-0.618-0.365
		l-0.428,0.272l0.413,0.258l-0.426,0.245l0.44,0.23l0.618-0.345l0.199,0.14v0.249l-0.388,0.218l0.618,0.367v0.288l-0.261,0.119
		l-0.607-0.345v0.457l-0.218,0.122l-0.213-0.122v-0.694l-0.449-0.256v0.482l-0.43-0.262v0.482l0.607,0.345v0.273l-0.21,0.105
		l-0.407-0.23v0.733l-0.236,0.152L93.794,26.886z"/>
	<path fill="#010101" d="M87.462,24.278l0.22,0.324h0.409l0.189-0.324l-0.199-0.345h-0.41L87.462,24.278z M87.631,26.886v-0.733
		l-0.41,0.23l-0.209-0.119v-0.258l0.607-0.345v-0.482l-0.441,0.283v-0.51l-0.421,0.243v0.692l-0.23,0.143L86.333,25.9v-0.464
		l-0.639,0.361l-0.273-0.115v-0.293l0.671-0.367l-0.42-0.211v-0.268l0.238-0.13l0.602,0.354l0.418-0.241l-0.01-0.008l-0.427-0.245
		l0.415-0.258l-0.417-0.241l-0.602,0.354l-0.226-0.112v-0.267l0.407-0.229l-0.65-0.353v-0.292l0.25-0.129l0.641,0.37v-0.472
		l0.193-0.13l0.237,0.137l-0.002,0.706l0.431,0.246l-0.002-0.499l0.452,0.243v-0.482l-0.607-0.346v-0.256l0.209-0.121l0.41,0.23
		v-0.732l0.234-0.154l0.237,0.154v0.732l0.424-0.235l0.213,0.141v0.23l-0.628,0.356v0.482l0.43-0.262v0.524l0.443-0.241v-0.755
		l0.213-0.099l0.224,0.099v0.483l0.659-0.356l0.231,0.14v0.273l-0.644,0.366l0.403,0.226v0.261l-0.209,0.116l-0.618-0.365
		l-0.428,0.272l0.413,0.258l-0.426,0.245l0.44,0.23l0.618-0.345l0.199,0.14v0.249l-0.388,0.218l0.618,0.367v0.288l-0.261,0.119
		l-0.607-0.345v0.457l-0.218,0.122l-0.213-0.122v-0.694l-0.449-0.256v0.482l-0.43-0.262v0.482l0.608,0.345v0.273l-0.21,0.105
		l-0.407-0.23v0.733l-0.236,0.152L87.631,26.886z"/>
	<path fill="#010101" d="M84.555,18.299l0.22,0.324h0.409l0.189-0.324l-0.199-0.345h-0.41L84.555,18.299z M84.723,20.906v-0.733
		l-0.41,0.23l-0.209-0.119v-0.258l0.607-0.345v-0.482l-0.441,0.283v-0.51l-0.421,0.243v0.692l-0.23,0.143l-0.195-0.129v-0.464
		l-0.639,0.361l-0.273-0.115V19.41l0.671-0.367l-0.42-0.211v-0.268l0.238-0.13l0.602,0.354l0.418-0.241l-0.01-0.008l-0.427-0.245
		L84,18.036l-0.417-0.241l-0.602,0.354l-0.226-0.112v-0.267l0.407-0.229l-0.65-0.353v-0.292l0.25-0.129l0.641,0.37v-0.472
		l0.193-0.13l0.237,0.137l-0.002,0.706l0.431,0.246l-0.001-0.499l0.452,0.243v-0.482l-0.607-0.346v-0.256l0.209-0.121l0.41,0.23
		v-0.732l0.234-0.154l0.237,0.154v0.732l0.424-0.235l0.213,0.141v0.23l-0.628,0.356v0.482l0.43-0.262v0.524l0.443-0.241v-0.755
		l0.213-0.099l0.224,0.099v0.483l0.659-0.356l0.231,0.14v0.273l-0.644,0.366l0.403,0.226v0.261l-0.209,0.116l-0.618-0.365
		l-0.428,0.272l0.413,0.258l-0.426,0.245l0.44,0.23l0.618-0.345l0.199,0.14v0.249l-0.388,0.218l0.618,0.367v0.288l-0.261,0.119
		l-0.607-0.345v0.457l-0.218,0.122l-0.213-0.122v-0.694l-0.449-0.256v0.482l-0.43-0.262v0.482l0.607,0.345v0.273l-0.21,0.105
		l-0.407-0.23v0.733l-0.236,0.152L84.723,20.906z"/>
</g>
<g id="tormenta">
	<g>
		<polygon fill="#F1E915" points="69.048,-2.421 66.345,-2.863 67.264,-7.192 63.541,-1.917 68.76,-1.917 		"/>
		<polygon fill="#F1E915" points="23.932,14.563 18.714,14.563 18.479,14.895 21.377,15.384 19.787,21.833 		"/>
		<polygon fill="#F1E915" points="17.095,14.563 11.876,14.563 11.642,14.895 14.539,15.384 12.95,21.833 		"/>
		<polygon fill="#F1E915" points="10.863,14.563 5.644,14.563 5.41,14.895 8.307,15.384 6.718,21.833 		"/>
	</g>
</g>
<g id="niebla">
	<g opacity="0.5">
		<g>
			<g>
				<path fill="#010101" d="M87.536-6.201c-0.029,0-0.059-0.001-0.088-0.003c-0.572-0.034-1.1-0.394-1.448-0.987l-0.262-0.447
					c-0.117-0.2-0.219-0.243-0.238-0.243c-0.019,0-0.121,0.043-0.238,0.243L85-7.191c-0.34,0.579-0.851,0.912-1.404,0.912
					c-0.553,0-1.065-0.332-1.405-0.911l-0.262-0.447c-0.096-0.164-0.214-0.266-0.313-0.271c-0.094-0.01-0.226,0.084-0.339,0.238
					l-0.461,0.629c-0.389,0.53-0.935,0.818-1.499,0.789c-0.564-0.029-1.078-0.371-1.411-0.938l-0.262-0.446
					c-0.097-0.165-0.214-0.266-0.313-0.271c-0.097-0.001-0.226,0.084-0.339,0.238L76.53-7.042c-0.389,0.53-0.935,0.818-1.499,0.789
					c-0.564-0.029-1.078-0.37-1.411-0.937l-0.262-0.447c-0.104-0.177-0.237-0.285-0.364-0.296c-0.125-0.014-0.265,0.068-0.393,0.22
					l-1.037,1.232l-1.035-0.871l1.037-1.231c0.414-0.491,0.978-0.746,1.542-0.697c0.571,0.048,1.087,0.398,1.417,0.959l0.262,0.447
					C74.883-7.711,75-7.61,75.1-7.604c0.103-0.001,0.226-0.084,0.339-0.238L75.9-8.471c0.389-0.53,0.938-0.817,1.499-0.789
					c0.564,0.029,1.078,0.371,1.411,0.938l0.262,0.446c0.097,0.165,0.214,0.266,0.313,0.271c0.107,0.011,0.226-0.084,0.339-0.238
					l0.461-0.629c0.389-0.53,0.936-0.817,1.499-0.789c0.564,0.029,1.078,0.37,1.411,0.937l0.262,0.447
					c0.117,0.2,0.219,0.243,0.238,0.243c0.019,0,0.121-0.043,0.238-0.243l0.262-0.446c0.34-0.579,0.851-0.912,1.404-0.912
					c0.553,0,1.065,0.332,1.405,0.911l0.262,0.447c0.134,0.229,0.279,0.316,0.361,0.321c0.087,0.01,0.177-0.091,0.221-0.15
					l0.883-1.162l1.077,0.819l-0.883,1.162C88.494-6.447,88.027-6.201,87.536-6.201z"/>
			</g>
		</g>
		<g>
			<g>
				<path fill="#010101" d="M87.536-9.989c-0.029,0-0.059-0.001-0.088-0.003c-0.572-0.034-1.1-0.394-1.448-0.987l-0.262-0.447
					c-0.117-0.2-0.219-0.243-0.238-0.243c-0.019,0-0.121,0.043-0.238,0.243L85-10.979c-0.34,0.579-0.851,0.912-1.404,0.912
					c-0.553,0-1.065-0.332-1.405-0.911l-0.262-0.447c-0.096-0.164-0.214-0.266-0.313-0.271c-0.094-0.01-0.226,0.084-0.339,0.238
					l-0.461,0.629c-0.389,0.53-0.935,0.817-1.499,0.789c-0.564-0.029-1.078-0.371-1.411-0.938l-0.262-0.446
					c-0.097-0.165-0.214-0.266-0.313-0.271c-0.097,0-0.226,0.084-0.339,0.238L76.53-10.83c-0.389,0.53-0.935,0.817-1.499,0.789
					c-0.564-0.029-1.078-0.37-1.411-0.937l-0.262-0.447c-0.104-0.177-0.237-0.285-0.364-0.296c-0.125-0.014-0.265,0.068-0.393,0.22
					l-1.037,1.232l-1.035-0.871l1.037-1.231c0.414-0.491,0.978-0.746,1.542-0.697c0.571,0.048,1.087,0.398,1.417,0.959l0.262,0.447
					c0.096,0.164,0.213,0.266,0.313,0.271c0.103-0.001,0.226-0.084,0.339-0.238l0.461-0.628c0.389-0.53,0.938-0.816,1.499-0.789
					c0.564,0.029,1.078,0.371,1.411,0.938l0.262,0.446c0.097,0.165,0.214,0.266,0.313,0.271c0.107,0.008,0.226-0.084,0.339-0.238
					l0.461-0.629c0.389-0.53,0.936-0.817,1.499-0.789c0.564,0.029,1.078,0.37,1.411,0.937l0.262,0.447
					c0.117,0.2,0.219,0.243,0.238,0.243c0.019,0,0.121-0.043,0.238-0.243l0.262-0.446c0.34-0.579,0.851-0.912,1.404-0.912
					c0.553,0,1.065,0.332,1.405,0.911l0.262,0.447c0.134,0.229,0.279,0.316,0.361,0.321c0.087,0.008,0.177-0.091,0.221-0.15
					l0.883-1.162l1.077,0.819l-0.883,1.162C88.494-10.235,88.027-9.989,87.536-9.989z"/>
			</g>
		</g>
		<g>
			<g>
				<path fill="#010101" d="M87.536-13.777c-0.029,0-0.059-0.001-0.088-0.003c-0.572-0.034-1.1-0.394-1.448-0.987l-0.262-0.447
					c-0.117-0.2-0.219-0.243-0.238-0.243c-0.019,0-0.121,0.043-0.238,0.243L85-14.767c-0.34,0.579-0.851,0.912-1.404,0.912
					c-0.553,0-1.065-0.332-1.405-0.911l-0.262-0.447c-0.096-0.164-0.214-0.266-0.313-0.271c-0.094-0.01-0.226,0.084-0.339,0.238
					l-0.461,0.629c-0.389,0.531-0.935,0.816-1.499,0.789c-0.564-0.029-1.078-0.371-1.411-0.938l-0.262-0.446
					c-0.097-0.165-0.214-0.266-0.313-0.271c-0.097,0-0.226,0.084-0.339,0.238l-0.461,0.628c-0.389,0.53-0.935,0.819-1.499,0.789
					c-0.564-0.029-1.078-0.37-1.411-0.937l-0.262-0.447c-0.104-0.177-0.237-0.285-0.364-0.296c-0.125-0.014-0.265,0.068-0.393,0.22
					l-1.037,1.232l-1.035-0.871l1.037-1.231c0.414-0.491,0.978-0.746,1.542-0.697c0.571,0.048,1.087,0.398,1.417,0.959l0.262,0.447
					C74.883-15.287,75-15.185,75.1-15.18c0.103-0.001,0.226-0.084,0.339-0.238l0.461-0.628c0.389-0.53,0.938-0.818,1.499-0.789
					c0.564,0.029,1.078,0.371,1.411,0.938l0.262,0.446c0.097,0.165,0.214,0.266,0.313,0.271c0.107,0.011,0.226-0.084,0.339-0.238
					l0.461-0.629c0.389-0.53,0.936-0.817,1.499-0.789c0.564,0.029,1.078,0.37,1.411,0.937l0.262,0.447
					c0.117,0.2,0.219,0.243,0.238,0.243c0.019,0,0.121-0.043,0.238-0.243l0.262-0.446c0.34-0.579,0.851-0.912,1.404-0.912
					c0.553,0,1.065,0.332,1.405,0.911l0.262,0.447c0.134,0.229,0.279,0.316,0.361,0.321c0.087,0.006,0.177-0.092,0.221-0.15
					l0.883-1.162l1.077,0.819l-0.883,1.162C88.494-14.023,88.027-13.777,87.536-13.777z"/>
			</g>
		</g>
	</g>
</g>
<g id="nuve">
	<path fill="#010101" d="M22.783,14.719H5.789c-1.586,0-2.875-1.29-2.875-2.875c0-1.345,0.928-2.478,2.178-2.79
		C5.649,7.66,6.939,6.662,8.443,6.483c0.159-3.236,2.841-5.821,6.116-5.821c2.4,0,4.542,1.411,5.536,3.506
		c0.816-0.446,1.736-0.684,2.687-0.684c3.097,0,5.618,2.52,5.618,5.617S25.88,14.719,22.783,14.719L22.783,14.719z M5.77,10.952
		c-0.483,0.01-0.874,0.407-0.874,0.892c0,0.492,0.4,0.892,0.892,0.892h16.994c2.004,0,3.634-1.63,3.634-3.634
		s-1.63-3.634-3.634-3.634c-0.939,0-1.83,0.358-2.51,1.007l-1.299,1.241l-0.358-1.761c-0.39-1.918-2.096-3.311-4.057-3.311
		c-2.283,0-4.141,1.857-4.141,4.141c0,0.186,0.014,0.378,0.041,0.572l0.186,1.347L9.305,8.47C9.178,8.448,9.052,8.437,8.93,8.437
		c-1.02,0-1.906,0.724-2.107,1.722l-0.166,0.822l-0.839-0.027C5.803,10.954,5.786,10.953,5.77,10.952L5.77,10.952z"/>
</g>
</svg>
