<?xml version="1.0" encoding="utf-8"?>
<!-- Generator: Adobe Illustrator 17.1.0, SVG Export Plug-In . SVG Version: 6.00 Build 0)  -->
<!DOCTYPE svg PUBLIC "-//W3C//DTD SVG 1.1//EN" "http://www.w3.org/Graphics/SVG/1.1/DTD/svg11.dtd">
<svg version="1.1" xmlns="http://www.w3.org/2000/svg" xmlns:xlink="http://www.w3.org/1999/xlink" x="0px" y="0px"
	 viewBox="0 0 30 30" enable-background="new 0 0 30 30" xml:space="preserve">
<g id="lluvia">
	<text transform="matrix(1 0 0 1 -104.4556 -18.239)"><tspan x="0" y="0" font-family="'MyriadPro-Regular'" font-size="12">niebla</tspan><tspan x="0" y="14.4" font-family="'MyriadPro-Regular'" font-size="12">lluvia</tspan><tspan x="0" y="28.8" font-family="'MyriadPro-Regular'" font-size="12">nieve </tspan><tspan x="0" y="43.2" font-family="'MyriadPro-Regular'" font-size="12">tormenta</tspan></text>
	<g>
		<path fill="#010101" d="M91.32-18.239c0,0-2.349,1.75-0.88,2.31C91.909-15.37,91.32-18.239,91.32-18.239z"/>
		<path fill="#010101" d="M94.015-18.239c0,0-2.348,1.75-0.88,2.31C94.604-15.37,94.015-18.239,94.015-18.239z"/>
		<path fill="#010101" d="M96.71-18.239c0,0-2.348,1.75-0.88,2.31C97.3-15.37,96.71-18.239,96.71-18.239z"/>
		<path fill="#010101" d="M99.405-18.239c0,0-2.348,1.75-0.88,2.31C99.995-15.37,99.405-18.239,99.405-18.239z"/>
		<path fill="#010101" d="M102.1-18.239c0,0-2.348,1.75-0.88,2.31C102.69-15.37,102.1-18.239,102.1-18.239z"/>
		<path fill="#010101" d="M92.218-13.747c0,0-2.348,1.749-0.88,2.309C92.808-10.878,92.218-13.747,92.218-13.747z"/>
		<path fill="#010101" d="M94.913-13.747c0,0-2.348,1.749-0.88,2.309C95.503-10.878,94.913-13.747,94.913-13.747z"/>
		<path fill="#010101" d="M97.608-13.747c0,0-2.348,1.749-0.88,2.309C98.198-10.878,97.608-13.747,97.608-13.747z"/>
		<path fill="#010101" d="M100.303-13.747c0,0-2.348,1.749-0.88,2.309C100.893-10.878,100.303-13.747,100.303-13.747z"/>
		<path fill="#010101" d="M102.998-13.747c0,0-2.348,1.749-0.88,2.309C103.588-10.878,102.998-13.747,102.998-13.747z"/>
		<path fill="#010101" d="M93.117-9.255c0,0-2.349,1.749-0.88,2.309C93.706-6.387,93.117-9.255,93.117-9.255z"/>
		<path fill="#010101" d="M95.811-9.255c0,0-2.348,1.749-0.88,2.309C96.401-6.387,95.811-9.255,95.811-9.255z"/>
		<path fill="#010101" d="M98.507-9.255c0,0-2.349,1.749-0.88,2.309C99.096-6.387,98.507-9.255,98.507-9.255z"/>
		<path fill="#010101" d="M101.202-9.255c0,0-2.349,1.749-0.88,2.309S101.202-9.255,101.202-9.255z"/>
		<path fill="#010101" d="M104.795-18.239c0,0-2.348,1.75-0.88,2.31C105.385-15.37,104.795-18.239,104.795-18.239z"/>
	</g>
</g>
<g id="nieve">
	<path fill="#010101" d="M20.501,19.275l0.22,0.324h0.409l0.189-0.324l-0.199-0.345h-0.41L20.501,19.275z M20.67,21.882v-0.733
		l-0.41,0.23l-0.209-0.119v-0.258l0.607-0.345v-0.482l-0.441,0.283v-0.51l-0.421,0.243v0.692l-0.23,0.143l-0.195-0.129v-0.464
		l-0.639,0.361l-0.273-0.115v-0.293l0.671-0.367l-0.42-0.211V19.54l0.238-0.13l0.602,0.354l0.418-0.241l-0.01-0.008l-0.427-0.245
		l0.415-0.258l-0.417-0.241l-0.602,0.354l-0.226-0.112v-0.267l0.407-0.229l-0.65-0.353v-0.292l0.25-0.129l0.641,0.37v-0.472
		l0.193-0.13l0.237,0.137l-0.002,0.706l0.431,0.246L20.207,18.1l0.452,0.243v-0.482l-0.607-0.346v-0.256l0.209-0.121l0.41,0.23
		v-0.732l0.234-0.154l0.237,0.154v0.732l0.424-0.235l0.213,0.141v0.23l-0.628,0.356v0.482l0.43-0.262v0.524l0.443-0.241v-0.755
		l0.213-0.099l0.224,0.099v0.483l0.659-0.356l0.231,0.14v0.273l-0.644,0.366l0.403,0.226v0.261L22.9,19.117l-0.618-0.365
		l-0.428,0.272l0.413,0.258l-0.426,0.245l0.44,0.23l0.618-0.345l0.199,0.14v0.249l-0.388,0.218l0.618,0.367v0.288l-0.261,0.119
		l-0.607-0.345v0.457l-0.218,0.122l-0.213-0.122v-0.694l-0.449-0.256v0.482l-0.43-0.262v0.482l0.608,0.345v0.273l-0.21,0.105
		l-0.407-0.23v0.733l-0.236,0.152L20.67,21.882z"/>
	<path fill="#010101" d="M14.338,19.275l0.22,0.324h0.409l0.189-0.324l-0.199-0.345h-0.41L14.338,19.275z M14.506,21.882v-0.733
		l-0.41,0.23l-0.209-0.119v-0.258l0.607-0.345v-0.482l-0.441,0.283v-0.51l-0.421,0.243v0.692l-0.23,0.143l-0.195-0.129v-0.464
		l-0.639,0.361l-0.273-0.115v-0.293l0.671-0.367l-0.42-0.211V19.54l0.238-0.13l0.602,0.354l0.418-0.241l-0.01-0.008l-0.427-0.245
		l0.415-0.258l-0.417-0.241l-0.602,0.354l-0.226-0.112v-0.267l0.407-0.229l-0.65-0.353v-0.292l0.25-0.129l0.641,0.37v-0.472
		l0.193-0.13l0.237,0.137l-0.002,0.706l0.431,0.246L14.044,18.1l0.452,0.243v-0.482l-0.607-0.346v-0.256l0.209-0.121l0.41,0.23
		v-0.732l0.234-0.154l0.237,0.154v0.732l0.424-0.235l0.213,0.141v0.23l-0.628,0.356v0.482l0.43-0.262v0.524l0.443-0.241v-0.755
		l0.213-0.099l0.224,0.099v0.483l0.659-0.356l0.231,0.14v0.273l-0.644,0.366l0.403,0.226v0.261l-0.209,0.116l-0.618-0.365
		l-0.428,0.272l0.413,0.258l-0.426,0.245l0.44,0.23l0.618-0.345l0.199,0.14v0.249l-0.388,0.218l0.618,0.367v0.288l-0.261,0.119
		l-0.607-0.345v0.457l-0.218,0.122l-0.213-0.122v-0.694l-0.449-0.256v0.482l-0.43-0.262v0.482l0.608,0.345v0.273l-0.21,0.105
		l-0.407-0.23v0.733l-0.236,0.152L14.506,21.882z"/>
	<path fill="#010101" d="M17.279,25.254l0.22,0.324h0.409l0.189-0.324l-0.199-0.345h-0.41L17.279,25.254z M17.447,27.862v-0.733
		l-0.41,0.23l-0.209-0.119v-0.258l0.607-0.345v-0.482l-0.441,0.283v-0.51l-0.421,0.243v0.692l-0.23,0.143l-0.195-0.129v-0.464
		l-0.639,0.361l-0.273-0.115v-0.293l0.671-0.367l-0.42-0.211V25.52l0.238-0.13l0.602,0.354l0.418-0.241l-0.01-0.008l-0.427-0.245
		l0.415-0.258l-0.417-0.241l-0.602,0.354l-0.226-0.112v-0.267l0.407-0.229l-0.65-0.353v-0.292l0.25-0.129l0.641,0.37v-0.472
		l0.193-0.13l0.237,0.137l-0.002,0.706l0.431,0.246l-0.001-0.499l0.452,0.243v-0.482l-0.607-0.346v-0.256l0.209-0.121l0.41,0.23
		v-0.732l0.234-0.154l0.237,0.154v0.732l0.424-0.235l0.213,0.141v0.23l-0.628,0.356v0.482l0.43-0.262v0.524l0.443-0.241v-0.755
		l0.213-0.099l0.224,0.099v0.483l0.659-0.356l0.231,0.14v0.273l-0.644,0.366l0.403,0.226v0.261l-0.209,0.116l-0.618-0.365
		l-0.428,0.272l0.413,0.258l-0.426,0.245l0.44,0.23l0.618-0.345l0.199,0.14v0.249l-0.388,0.218l0.618,0.367v0.288l-0.261,0.119
		l-0.607-0.345v0.457l-0.218,0.122l-0.213-0.122v-0.694l-0.449-0.256v0.482l-0.43-0.262v0.482l0.608,0.345v0.273l-0.21,0.105
		l-0.407-0.23v0.733l-0.236,0.152L17.447,27.862z"/>
	<path fill="#010101" d="M11.115,25.254l0.22,0.324h0.409l0.189-0.324l-0.199-0.345h-0.41L11.115,25.254z M11.283,27.862v-0.733
		l-0.41,0.23l-0.209-0.119v-0.258l0.607-0.345v-0.482l-0.441,0.283v-0.51l-0.421,0.243v0.692l-0.23,0.143l-0.195-0.129v-0.464
		l-0.639,0.361l-0.273-0.115v-0.293l0.671-0.367l-0.42-0.211V25.52l0.238-0.13l0.602,0.354l0.418-0.241l-0.01-0.008l-0.427-0.245
		l0.415-0.258l-0.417-0.241l-0.602,0.354l-0.226-0.112v-0.267l0.407-0.229l-0.65-0.353v-0.292l0.25-0.129l0.641,0.37v-0.472
		l0.193-0.13l0.237,0.137l-0.002,0.706l0.431,0.246l-0.001-0.499l0.452,0.243v-0.482l-0.607-0.346v-0.256l0.209-0.121l0.41,0.23
		v-0.732l0.234-0.154l0.237,0.154v0.732l0.424-0.235l0.213,0.141v0.23l-0.628,0.356v0.482l0.43-0.262v0.524l0.443-0.241v-0.755
		l0.213-0.099l0.224,0.099v0.483l0.659-0.356l0.231,0.14v0.273l-0.644,0.366l0.403,0.226v0.261l-0.209,0.116l-0.618-0.365
		l-0.428,0.272l0.413,0.258l-0.426,0.245l0.44,0.23l0.618-0.345l0.199,0.14v0.249l-0.388,0.218l0.618,0.367v0.288l-0.261,0.119
		l-0.607-0.345v0.457l-0.218,0.122l-0.213-0.122v-0.694l-0.449-0.256v0.482l-0.43-0.262v0.482l0.608,0.345v0.273l-0.21,0.105
		l-0.407-0.23v0.733l-0.236,0.152L11.283,27.862z"/>
	<path fill="#010101" d="M8.208,19.275l0.22,0.324h0.409l0.189-0.324l-0.199-0.345h-0.41L8.208,19.275z M8.376,21.882v-0.733
		l-0.41,0.23L7.758,21.26v-0.258l0.607-0.345v-0.482l-0.441,0.283v-0.51L7.503,20.19v0.692l-0.23,0.143l-0.195-0.129v-0.464
		l-0.639,0.361l-0.273-0.115v-0.293l0.671-0.367l-0.42-0.211V19.54l0.238-0.13l0.602,0.354l0.418-0.241l-0.01-0.008L7.238,19.27
		l0.415-0.258l-0.417-0.241l-0.602,0.354l-0.226-0.112v-0.267l0.407-0.229l-0.65-0.353v-0.292l0.25-0.129l0.641,0.37v-0.472
		l0.193-0.13l0.237,0.137l-0.002,0.706l0.431,0.246L7.914,18.1l0.452,0.243v-0.482l-0.607-0.346v-0.256l0.209-0.121l0.41,0.23
		v-0.732l0.234-0.154l0.237,0.154v0.732l0.424-0.235l0.213,0.141v0.23l-0.628,0.356v0.482l0.43-0.262v0.524l0.443-0.241v-0.755
		l0.213-0.099l0.224,0.099v0.483l0.659-0.356l0.231,0.14v0.273l-0.644,0.366l0.403,0.226v0.261l-0.209,0.116l-0.618-0.365
		l-0.428,0.272l0.413,0.258l-0.426,0.245l0.44,0.23l0.618-0.345l0.199,0.14v0.249l-0.388,0.218l0.618,0.367v0.288l-0.261,0.119
		l-0.607-0.345v0.457l-0.218,0.122l-0.213-0.122v-0.694l-0.449-0.256v0.482l-0.43-0.262v0.482l0.608,0.345v0.273l-0.21,0.105
		l-0.407-0.23v0.733L8.61,22.034L8.376,21.882z"/>
</g>
<g id="tormenta">
	<g>
		<path fill="#010101" d="M76.238-22.596l-3.958,5.608l2.898,0.488l-1.59,6.449l4.433-7.775l-2.703-0.441L76.238-22.596z"/>
	</g>
</g>
<g id="niebla">
	<g opacity="0.5">
		<g>
			<g>
				<path fill="#010101" d="M22.173,27.527c-0.029,0-0.059-0.001-0.088-0.003c-0.572-0.034-1.1-0.394-1.448-0.987l-0.262-0.447
					c-0.117-0.2-0.219-0.243-0.238-0.243c-0.019,0-0.121,0.043-0.238,0.243l-0.262,0.446c-0.34,0.579-0.851,0.912-1.404,0.912
					c-0.553,0-1.065-0.332-1.405-0.911l-0.262-0.447c-0.096-0.164-0.214-0.266-0.313-0.271c-0.094-0.01-0.226,0.084-0.339,0.238
					l-0.461,0.629c-0.389,0.53-0.935,0.818-1.499,0.789c-0.564-0.029-1.078-0.371-1.411-0.938l-0.262-0.446
					c-0.097-0.165-0.214-0.266-0.313-0.271c-0.097-0.001-0.226,0.084-0.339,0.238l-0.461,0.628c-0.389,0.53-0.935,0.818-1.499,0.789
					c-0.564-0.029-1.078-0.37-1.411-0.937l-0.262-0.447c-0.104-0.177-0.237-0.285-0.364-0.296c-0.125-0.014-0.265,0.068-0.393,0.22
					L6.2,27.247l-1.035-0.871l1.037-1.231c0.414-0.491,0.978-0.746,1.542-0.697c0.571,0.048,1.087,0.398,1.417,0.959l0.262,0.447
					c0.096,0.164,0.213,0.266,0.313,0.271c0.103-0.001,0.226-0.084,0.339-0.238l0.461-0.628c0.389-0.53,0.938-0.817,1.499-0.789
					c0.564,0.029,1.078,0.371,1.411,0.938l0.262,0.446c0.097,0.165,0.214,0.266,0.313,0.271c0.107,0.011,0.226-0.084,0.339-0.238
					l0.461-0.629c0.389-0.53,0.936-0.817,1.499-0.789c0.564,0.029,1.078,0.37,1.411,0.937l0.262,0.447
					c0.117,0.2,0.219,0.243,0.238,0.243c0.019,0,0.121-0.043,0.238-0.243l0.262-0.446c0.34-0.579,0.851-0.912,1.404-0.912
					c0.553,0,1.065,0.332,1.405,0.911l0.262,0.447c0.134,0.229,0.279,0.316,0.361,0.321c0.087,0.01,0.177-0.091,0.221-0.15
					l0.883-1.162l1.077,0.819l-0.883,1.162C23.13,27.281,22.664,27.527,22.173,27.527z"/>
			</g>
		</g>
		<g>
			<g>
				<path fill="#010101" d="M22.173,23.739c-0.029,0-0.059-0.001-0.088-0.003c-0.572-0.034-1.1-0.394-1.448-0.987l-0.262-0.447
					c-0.117-0.2-0.219-0.243-0.238-0.243c-0.019,0-0.121,0.043-0.238,0.243l-0.262,0.446c-0.34,0.579-0.851,0.912-1.404,0.912
					c-0.553,0-1.065-0.332-1.405-0.911l-0.262-0.447c-0.096-0.164-0.214-0.266-0.313-0.271c-0.094-0.01-0.226,0.084-0.339,0.238
					l-0.461,0.629c-0.389,0.53-0.935,0.817-1.499,0.789c-0.564-0.029-1.078-0.371-1.411-0.938l-0.262-0.446
					c-0.097-0.165-0.214-0.266-0.313-0.271c-0.097,0-0.226,0.084-0.339,0.238l-0.461,0.628c-0.389,0.53-0.935,0.817-1.499,0.789
					c-0.564-0.029-1.078-0.37-1.411-0.937l-0.262-0.447c-0.104-0.177-0.237-0.285-0.364-0.296c-0.125-0.014-0.265,0.068-0.393,0.22
					L6.2,23.459l-1.035-0.871l1.037-1.231c0.414-0.491,0.978-0.746,1.542-0.697c0.571,0.048,1.087,0.398,1.417,0.959l0.262,0.447
					c0.096,0.164,0.213,0.266,0.313,0.271c0.103-0.001,0.226-0.084,0.339-0.238l0.461-0.628c0.389-0.53,0.938-0.816,1.499-0.789
					c0.564,0.029,1.078,0.371,1.411,0.938l0.262,0.446c0.097,0.165,0.214,0.266,0.313,0.271c0.107,0.008,0.226-0.084,0.339-0.238
					l0.461-0.629c0.389-0.53,0.936-0.817,1.499-0.789c0.564,0.029,1.078,0.37,1.411,0.937l0.262,0.447
					c0.117,0.2,0.219,0.243,0.238,0.243c0.019,0,0.121-0.043,0.238-0.243l0.262-0.446c0.34-0.579,0.851-0.912,1.404-0.912
					c0.553,0,1.065,0.332,1.405,0.911l0.262,0.447c0.134,0.229,0.279,0.316,0.361,0.321c0.087,0.008,0.177-0.091,0.221-0.15
					l0.883-1.162l1.077,0.819l-0.883,1.162C23.13,23.493,22.664,23.739,22.173,23.739z"/>
			</g>
		</g>
		<g>
			<g>
				<path fill="#010101" d="M22.173,19.951c-0.029,0-0.059-0.001-0.088-0.003c-0.572-0.034-1.1-0.394-1.448-0.987l-0.262-0.447
					c-0.117-0.2-0.219-0.243-0.238-0.243c-0.019,0-0.121,0.043-0.238,0.243l-0.262,0.446c-0.34,0.579-0.851,0.912-1.404,0.912
					c-0.553,0-1.065-0.332-1.405-0.911l-0.262-0.447c-0.096-0.164-0.214-0.266-0.313-0.271c-0.094-0.01-0.226,0.084-0.339,0.238
					l-0.461,0.629c-0.389,0.531-0.935,0.816-1.499,0.789c-0.564-0.029-1.078-0.371-1.411-0.938l-0.262-0.446
					c-0.097-0.165-0.214-0.266-0.313-0.271c-0.097,0-0.226,0.084-0.339,0.238l-0.461,0.628c-0.389,0.53-0.935,0.819-1.499,0.789
					c-0.564-0.029-1.078-0.37-1.411-0.937l-0.262-0.447c-0.104-0.177-0.237-0.285-0.364-0.296c-0.125-0.014-0.265,0.068-0.393,0.22
					L6.2,19.671L5.166,18.8l1.037-1.231c0.414-0.491,0.978-0.746,1.542-0.697c0.571,0.048,1.087,0.398,1.417,0.959l0.262,0.447
					c0.096,0.164,0.213,0.266,0.313,0.271c0.103-0.001,0.226-0.084,0.339-0.238l0.461-0.628c0.389-0.53,0.938-0.818,1.499-0.789
					c0.564,0.029,1.078,0.371,1.411,0.938l0.262,0.446c0.097,0.165,0.214,0.266,0.313,0.271c0.107,0.011,0.226-0.084,0.339-0.238
					l0.461-0.629c0.389-0.53,0.936-0.817,1.499-0.789c0.564,0.029,1.078,0.37,1.411,0.937l0.262,0.447
					c0.117,0.2,0.219,0.243,0.238,0.243c0.019,0,0.121-0.043,0.238-0.243l0.262-0.446c0.34-0.579,0.851-0.912,1.404-0.912
					c0.553,0,1.065,0.332,1.405,0.911l0.262,0.447c0.134,0.229,0.279,0.316,0.361,0.321c0.087,0.006,0.177-0.092,0.221-0.15
					l0.883-1.162l1.077,0.819l-0.883,1.162C23.13,19.706,22.664,19.951,22.173,19.951z"/>
			</g>
		</g>
	</g>
</g>
<g id="nuve">
	<path fill="#010101" d="M22.126,15.386H5.132c-1.586,0-2.875-1.29-2.875-2.875c0-1.345,0.928-2.478,2.178-2.79
		C4.992,8.327,6.282,7.329,7.786,7.15c0.159-3.236,2.841-5.821,6.116-5.821c2.4,0,4.542,1.411,5.536,3.506
		c0.816-0.446,1.736-0.684,2.687-0.684c3.097,0,5.618,2.52,5.618,5.617S25.223,15.386,22.126,15.386L22.126,15.386z M5.113,11.618
		c-0.483,0.01-0.874,0.407-0.874,0.892c0,0.492,0.4,0.892,0.892,0.892h16.994c2.004,0,3.634-1.63,3.634-3.634
		s-1.63-3.634-3.634-3.634c-0.939,0-1.83,0.358-2.51,1.007l-1.299,1.241L17.96,6.623c-0.39-1.918-2.096-3.311-4.057-3.311
		c-2.283,0-4.141,1.857-4.141,4.141c0,0.186,0.014,0.378,0.041,0.572l0.186,1.347l-1.34-0.235C8.522,9.115,8.395,9.103,8.273,9.103
		c-1.02,0-1.906,0.724-2.107,1.722L6,11.648l-0.839-0.027C5.146,11.62,5.13,11.619,5.113,11.618L5.113,11.618z"/>
</g>
</svg>
