<?xml version="1.0" encoding="utf-8"?>
<!-- Generator: Adobe Illustrator 17.1.0, SVG Export Plug-In . SVG Version: 6.00 Build 0)  -->
<!DOCTYPE svg PUBLIC "-//W3C//DTD SVG 1.1//EN" "http://www.w3.org/Graphics/SVG/1.1/DTD/svg11.dtd">
<svg version="1.1" xmlns="http://www.w3.org/2000/svg" xmlns:xlink="http://www.w3.org/1999/xlink" x="0px" y="0px"
	 viewBox="0 0 30 30" enable-background="new 0 0 30 30" xml:space="preserve">
<g id="lluvia">
	<text transform="matrix(1 0 0 1 -94.9556 0.6623)"><tspan x="0" y="0" font-family="'MyriadPro-Regular'" font-size="12">niebla</tspan><tspan x="0" y="14.4" font-family="'MyriadPro-Regular'" font-size="12">lluvia</tspan><tspan x="0" y="28.8" font-family="'MyriadPro-Regular'" font-size="12">nieve </tspan><tspan x="0" y="43.2" font-family="'MyriadPro-Regular'" font-size="12">tormenta</tspan></text>
	<g>
		<path fill="#010101" d="M-26.657-45.13c0,0-2.349,1.75-0.88,2.31C-26.067-42.261-26.657-45.13-26.657-45.13z"/>
		<path fill="#010101" d="M-23.962-45.13c0,0-2.348,1.75-0.88,2.31C-23.372-42.261-23.962-45.13-23.962-45.13z"/>
		<path fill="#010101" d="M-21.267-45.13c0,0-2.348,1.75-0.88,2.31C-20.677-42.261-21.267-45.13-21.267-45.13z"/>
		<path fill="#010101" d="M-18.572-45.13c0,0-2.348,1.75-0.88,2.31C-17.981-42.261-18.572-45.13-18.572-45.13z"/>
		<path fill="#010101" d="M-15.877-45.13c0,0-2.348,1.75-0.88,2.31C-15.286-42.261-15.877-45.13-15.877-45.13z"/>
		<path fill="#010101" d="M-25.759-40.638c0,0-2.348,1.749-0.88,2.309C-25.169-37.769-25.759-40.638-25.759-40.638z"/>
		<path fill="#010101" d="M-23.064-40.638c0,0-2.348,1.749-0.88,2.309C-22.473-37.769-23.064-40.638-23.064-40.638z"/>
		<path fill="#010101" d="M-20.369-40.638c0,0-2.348,1.749-0.88,2.309C-19.778-37.769-20.369-40.638-20.369-40.638z"/>
		<path fill="#010101" d="M-17.674-40.638c0,0-2.348,1.749-0.88,2.309C-17.083-37.769-17.674-40.638-17.674-40.638z"/>
		<path fill="#010101" d="M-14.979-40.638c0,0-2.348,1.749-0.88,2.309C-14.388-37.769-14.979-40.638-14.979-40.638z"/>
		<path fill="#010101" d="M-24.86-36.146c0,0-2.349,1.749-0.88,2.309C-24.27-33.278-24.86-36.146-24.86-36.146z"/>
		<path fill="#010101" d="M-22.166-36.146c0,0-2.348,1.749-0.88,2.309C-21.575-33.278-22.166-36.146-22.166-36.146z"/>
		<path fill="#010101" d="M-19.47-36.146c0,0-2.349,1.749-0.88,2.309C-18.88-33.278-19.47-36.146-19.47-36.146z"/>
		<path fill="#010101" d="M-16.775-36.146c0,0-2.349,1.749-0.88,2.309S-16.775-36.146-16.775-36.146z"/>
		<path fill="#010101" d="M-13.182-45.13c0,0-2.348,1.75-0.88,2.31C-12.591-42.261-13.182-45.13-13.182-45.13z"/>
	</g>
</g>
<g id="nieve">
	<path fill="#010101" d="M96.849,18.299l0.22,0.324h0.409l0.189-0.324l-0.199-0.345h-0.41L96.849,18.299z M97.017,20.906v-0.733
		l-0.41,0.23l-0.209-0.119v-0.258l0.607-0.345v-0.482l-0.441,0.283v-0.51l-0.421,0.243v0.692l-0.23,0.143l-0.195-0.129v-0.464
		l-0.639,0.361l-0.273-0.115V19.41l0.671-0.367l-0.42-0.211v-0.268l0.238-0.13l0.602,0.354l0.418-0.241l-0.01-0.008l-0.427-0.245
		l0.415-0.258l-0.417-0.241l-0.602,0.354l-0.226-0.112v-0.267l0.407-0.229l-0.65-0.353v-0.292l0.25-0.129l0.641,0.37v-0.472
		l0.193-0.13l0.237,0.137l-0.002,0.706l0.431,0.246l-0.002-0.499l0.452,0.243v-0.482l-0.607-0.346v-0.256l0.209-0.121l0.41,0.23
		v-0.732l0.234-0.154l0.237,0.154v0.732l0.424-0.235l0.213,0.141v0.23l-0.628,0.356v0.482l0.43-0.262v0.524l0.443-0.241v-0.755
		l0.213-0.099l0.224,0.099v0.483l0.659-0.356l0.231,0.14v0.273l-0.644,0.366l0.403,0.226v0.261l-0.209,0.116l-0.618-0.365
		l-0.428,0.272l0.413,0.258l-0.426,0.245l0.44,0.23l0.618-0.345l0.199,0.14v0.249l-0.388,0.218l0.618,0.367v0.288l-0.261,0.119
		l-0.607-0.345v0.457L98.59,20.05l-0.213-0.122v-0.694l-0.449-0.256v0.482l-0.43-0.262v0.482l0.607,0.345v0.273l-0.21,0.105
		l-0.407-0.23v0.733l-0.236,0.152L97.017,20.906z"/>
	<path fill="#010101" d="M12.999,15.586l1.089,1.608h2.028l0.936-1.608l-0.986-1.712h-2.032L12.999,15.586z M13.834,28.519v-3.636
		l-2.032,1.143l-1.035-0.592v-1.281l3.013-1.712v-2.39l-2.186,1.405v-2.532l-2.089,1.204v3.433l-1.143,0.708l-0.966-0.639v-2.301
		l-3.171,1.789l-1.354-0.57v-1.451l3.328-1.82L4.118,18.23v-1.328L5.3,16.256l2.986,1.758l2.074-1.197l-0.05-0.038l-2.12-1.216
		l2.059-1.277l-2.066-1.197l-2.985,1.754l-1.12-0.558v-1.324l2.021-1.135l-3.225-1.751V8.625L4.11,7.987l3.178,1.835V7.483
		l0.958-0.646l1.174,0.677l-0.008,3.501l2.135,1.22l-0.007-2.474l2.239,1.204v-2.39l-3.013-1.716V5.59l1.035-0.6l2.032,1.143V2.504
		l1.162-0.762l1.173,0.762v3.629l2.105-1.166l1.059,0.7v1.143l-3.117,1.766v2.39l2.132-1.301v2.601l2.197-1.197V7.325l1.058-0.493
		l1.112,0.493v2.394l3.27-1.766l1.143,0.697v1.354l-3.194,1.816l1.997,1.119v1.293l-1.035,0.573l-3.066-1.812l-2.12,1.347
		l2.051,1.278l-2.112,1.216l2.182,1.143l3.066-1.713l0.985,0.697v1.235l-1.924,1.081l3.063,1.82v1.428l-1.297,0.592l-3.009-1.713
		v2.266l-1.081,0.604l-1.058-0.604v-3.44l-2.228-1.269v2.39l-2.132-1.301v2.39l3.013,1.712v1.355l-1.04,0.519l-2.02-1.143v3.636
		l-1.173,0.754L13.834,28.519z"/>
	<path fill="#010101" d="M93.626,24.278l0.22,0.324h0.409l0.189-0.324l-0.199-0.345h-0.41L93.626,24.278z M93.794,26.886v-0.733
		l-0.41,0.23l-0.209-0.119v-0.258l0.607-0.345v-0.482l-0.441,0.283v-0.51l-0.421,0.243v0.692l-0.23,0.143L92.497,25.9v-0.464
		l-0.639,0.361l-0.273-0.115v-0.293l0.671-0.367l-0.42-0.211v-0.268l0.238-0.13l0.602,0.354l0.418-0.241l-0.01-0.008l-0.427-0.245
		l0.415-0.258l-0.417-0.241l-0.602,0.354l-0.226-0.112v-0.267l0.407-0.229l-0.65-0.353v-0.292l0.25-0.129l0.641,0.37v-0.472
		l0.193-0.13l0.237,0.137l-0.002,0.706l0.431,0.246l-0.001-0.499l0.452,0.243v-0.482l-0.607-0.346v-0.256l0.209-0.121l0.41,0.23
		v-0.732l0.234-0.154l0.237,0.154v0.732l0.424-0.235l0.213,0.141v0.23l-0.628,0.356v0.482l0.43-0.262v0.524l0.443-0.241v-0.755
		l0.213-0.099l0.224,0.099v0.483l0.659-0.356l0.231,0.14v0.273l-0.644,0.366l0.403,0.226v0.261l-0.209,0.116l-0.618-0.365
		l-0.428,0.272l0.413,0.258l-0.426,0.245l0.44,0.23l0.618-0.345l0.199,0.14v0.249l-0.388,0.218l0.618,0.367v0.288l-0.261,0.119
		l-0.607-0.345v0.457l-0.218,0.122l-0.213-0.122v-0.694l-0.449-0.256v0.482l-0.43-0.262v0.482l0.607,0.345v0.273l-0.21,0.105
		l-0.407-0.23v0.733l-0.236,0.152L93.794,26.886z"/>
	<path fill="#010101" d="M87.462,24.278l0.22,0.324h0.409l0.189-0.324l-0.199-0.345h-0.41L87.462,24.278z M87.631,26.886v-0.733
		l-0.41,0.23l-0.209-0.119v-0.258l0.607-0.345v-0.482l-0.441,0.283v-0.51l-0.421,0.243v0.692l-0.23,0.143L86.333,25.9v-0.464
		l-0.639,0.361l-0.273-0.115v-0.293l0.671-0.367l-0.42-0.211v-0.268l0.238-0.13l0.602,0.354l0.418-0.241l-0.01-0.008l-0.427-0.245
		l0.415-0.258l-0.417-0.241l-0.602,0.354l-0.226-0.112v-0.267l0.407-0.229l-0.65-0.353v-0.292l0.25-0.129l0.641,0.37v-0.472
		l0.193-0.13l0.237,0.137l-0.002,0.706l0.431,0.246l-0.002-0.499l0.452,0.243v-0.482l-0.607-0.346v-0.256l0.209-0.121l0.41,0.23
		v-0.732l0.234-0.154l0.237,0.154v0.732l0.424-0.235l0.213,0.141v0.23l-0.628,0.356v0.482l0.43-0.262v0.524l0.443-0.241v-0.755
		l0.213-0.099l0.224,0.099v0.483l0.659-0.356l0.231,0.14v0.273l-0.644,0.366l0.403,0.226v0.261l-0.209,0.116l-0.618-0.365
		l-0.428,0.272l0.413,0.258l-0.426,0.245l0.44,0.23l0.618-0.345l0.199,0.14v0.249l-0.388,0.218l0.618,0.367v0.288l-0.261,0.119
		l-0.607-0.345v0.457l-0.218,0.122l-0.213-0.122v-0.694l-0.449-0.256v0.482l-0.43-0.262v0.482l0.608,0.345v0.273l-0.21,0.105
		l-0.407-0.23v0.733l-0.236,0.152L87.631,26.886z"/>
	<path fill="#010101" d="M84.555,18.299l0.22,0.324h0.409l0.189-0.324l-0.199-0.345h-0.41L84.555,18.299z M84.723,20.906v-0.733
		l-0.41,0.23l-0.209-0.119v-0.258l0.607-0.345v-0.482l-0.441,0.283v-0.51l-0.421,0.243v0.692l-0.23,0.143l-0.195-0.129v-0.464
		l-0.639,0.361l-0.273-0.115V19.41l0.671-0.367l-0.42-0.211v-0.268l0.238-0.13l0.602,0.354l0.418-0.241l-0.01-0.008l-0.427-0.245
		L84,18.036l-0.417-0.241l-0.602,0.354l-0.226-0.112v-0.267l0.407-0.229l-0.65-0.353v-0.292l0.25-0.129l0.641,0.37v-0.472
		l0.193-0.13l0.237,0.137l-0.002,0.706l0.431,0.246l-0.001-0.499l0.452,0.243v-0.482l-0.607-0.346v-0.256l0.209-0.121l0.41,0.23
		v-0.732l0.234-0.154l0.237,0.154v0.732l0.424-0.235l0.213,0.141v0.23l-0.628,0.356v0.482l0.43-0.262v0.524l0.443-0.241v-0.755
		l0.213-0.099l0.224,0.099v0.483l0.659-0.356l0.231,0.14v0.273l-0.644,0.366l0.403,0.226v0.261l-0.209,0.116l-0.618-0.365
		l-0.428,0.272l0.413,0.258l-0.426,0.245l0.44,0.23l0.618-0.345l0.199,0.14v0.249l-0.388,0.218l0.618,0.367v0.288l-0.261,0.119
		l-0.607-0.345v0.457l-0.218,0.122l-0.213-0.122v-0.694l-0.449-0.256v0.482l-0.43-0.262v0.482l0.607,0.345v0.273l-0.21,0.105
		l-0.407-0.23v0.733l-0.236,0.152L84.723,20.906z"/>
</g>
<g id="tormenta">
	<g>
		<path fill="#010101" d="M76.817-32.52l-3.958,5.608l2.898,0.488l-1.59,6.449L78.6-27.75l-2.703-0.441L76.817-32.52z"/>
	</g>
</g>
<g id="niebla">
	<g>
		<g>
			<g>
				<path fill="#010101" d="M84.981-3.223c-0.029,0-0.059-0.001-0.088-0.003c-0.572-0.034-1.1-0.394-1.448-0.987l-0.262-0.447
					c-0.117-0.2-0.219-0.243-0.238-0.243s-0.121,0.043-0.238,0.243l-0.262,0.446c-0.34,0.579-0.851,0.912-1.404,0.912
					c-0.553,0-1.065-0.332-1.405-0.911l-0.262-0.447c-0.096-0.164-0.214-0.266-0.313-0.271c-0.094-0.01-0.226,0.084-0.339,0.238
					l-0.461,0.629c-0.389,0.53-0.935,0.818-1.499,0.789c-0.564-0.029-1.078-0.371-1.411-0.938l-0.262-0.446
					c-0.097-0.165-0.214-0.266-0.313-0.271c-0.097-0.001-0.226,0.084-0.339,0.238l-0.461,0.628c-0.389,0.53-0.935,0.818-1.499,0.789
					c-0.564-0.029-1.078-0.37-1.411-0.937l-0.262-0.447c-0.104-0.177-0.237-0.285-0.364-0.296c-0.125-0.014-0.265,0.068-0.393,0.22
					l-1.037,1.232l-1.035-0.871l1.037-1.231c0.414-0.491,0.978-0.746,1.542-0.697c0.571,0.048,1.087,0.398,1.417,0.959l0.262,0.447
					c0.096,0.164,0.213,0.266,0.313,0.271c0.103-0.001,0.226-0.084,0.339-0.238l0.461-0.628c0.389-0.53,0.938-0.817,1.499-0.789
					c0.564,0.029,1.078,0.371,1.411,0.938l0.262,0.446c0.097,0.165,0.214,0.266,0.313,0.271c0.107,0.011,0.226-0.084,0.339-0.238
					l0.461-0.629c0.389-0.53,0.936-0.817,1.499-0.789c0.564,0.029,1.078,0.37,1.411,0.937l0.262,0.447
					c0.117,0.2,0.219,0.243,0.238,0.243c0.019,0,0.121-0.043,0.238-0.243l0.262-0.446c0.34-0.579,0.851-0.912,1.404-0.912
					c0.553,0,1.065,0.332,1.405,0.911l0.262,0.447c0.134,0.229,0.279,0.316,0.361,0.321c0.087,0.01,0.177-0.091,0.221-0.15
					l0.883-1.162l1.077,0.819l-0.883,1.162C85.939-3.468,85.472-3.223,84.981-3.223z"/>
			</g>
		</g>
		<g>
			<g>
				<path fill="#010101" d="M84.981-7.011c-0.029,0-0.059-0.001-0.088-0.003c-0.572-0.034-1.1-0.394-1.448-0.987l-0.262-0.447
					c-0.117-0.2-0.219-0.243-0.238-0.243s-0.121,0.043-0.238,0.243L82.445-8c-0.34,0.579-0.851,0.912-1.404,0.912
					c-0.553,0-1.065-0.332-1.405-0.911l-0.262-0.447c-0.096-0.164-0.214-0.266-0.313-0.271c-0.094-0.01-0.226,0.084-0.339,0.238
					l-0.461,0.629c-0.389,0.53-0.935,0.817-1.499,0.789c-0.564-0.029-1.078-0.371-1.411-0.938l-0.262-0.446
					c-0.097-0.165-0.214-0.266-0.313-0.271c-0.097,0-0.226,0.084-0.339,0.238l-0.461,0.628c-0.389,0.53-0.935,0.817-1.499,0.789
					C71.912-7.091,71.398-7.433,71.065-8l-0.262-0.447c-0.104-0.177-0.237-0.285-0.364-0.296c-0.125-0.014-0.265,0.068-0.393,0.22
					l-1.037,1.232l-1.035-0.871l1.037-1.231c0.414-0.491,0.978-0.746,1.542-0.697c0.571,0.048,1.087,0.398,1.417,0.959l0.262,0.447
					c0.096,0.164,0.213,0.266,0.313,0.271c0.103-0.001,0.226-0.084,0.339-0.238l0.461-0.628c0.389-0.53,0.938-0.816,1.499-0.789
					c0.564,0.029,1.078,0.371,1.411,0.938l0.262,0.446c0.097,0.165,0.214,0.266,0.313,0.271c0.107,0.008,0.226-0.084,0.339-0.238
					L77.63-9.28c0.389-0.53,0.936-0.817,1.499-0.789c0.564,0.029,1.078,0.37,1.411,0.937l0.262,0.447
					c0.117,0.2,0.219,0.243,0.238,0.243c0.019,0,0.121-0.043,0.238-0.243l0.262-0.446c0.34-0.579,0.851-0.912,1.404-0.912
					c0.553,0,1.065,0.332,1.405,0.911l0.262,0.447c0.134,0.229,0.279,0.316,0.361,0.321c0.087,0.008,0.177-0.091,0.221-0.15
					l0.883-1.162l1.077,0.819l-0.883,1.162C85.939-7.256,85.472-7.011,84.981-7.011z"/>
			</g>
		</g>
		<g>
			<g>
				<path fill="#010101" d="M84.981-10.798c-0.029,0-0.059-0.001-0.088-0.003c-0.572-0.034-1.1-0.394-1.448-0.987l-0.262-0.447
					c-0.117-0.2-0.219-0.243-0.238-0.243s-0.121,0.043-0.238,0.243l-0.262,0.446c-0.34,0.579-0.851,0.912-1.404,0.912
					c-0.553,0-1.065-0.332-1.405-0.911l-0.262-0.447c-0.096-0.164-0.214-0.266-0.313-0.271c-0.094-0.01-0.226,0.084-0.339,0.238
					l-0.461,0.629c-0.389,0.531-0.935,0.816-1.499,0.789c-0.564-0.029-1.078-0.371-1.411-0.938l-0.262-0.446
					c-0.097-0.165-0.214-0.266-0.313-0.271c-0.097,0-0.226,0.084-0.339,0.238l-0.461,0.628c-0.389,0.53-0.935,0.819-1.499,0.789
					c-0.564-0.029-1.078-0.37-1.411-0.937l-0.262-0.447c-0.104-0.177-0.237-0.285-0.364-0.296c-0.125-0.014-0.265,0.068-0.393,0.22
					l-1.037,1.232l-1.035-0.871l1.037-1.231c0.414-0.491,0.978-0.746,1.542-0.697c0.571,0.048,1.087,0.398,1.417,0.959l0.262,0.447
					c0.096,0.164,0.213,0.266,0.313,0.271c0.103-0.001,0.226-0.084,0.339-0.238l0.461-0.628c0.389-0.53,0.938-0.818,1.499-0.789
					c0.564,0.029,1.078,0.371,1.411,0.938l0.262,0.446c0.097,0.165,0.214,0.266,0.313,0.271c0.107,0.011,0.226-0.084,0.339-0.238
					l0.461-0.629c0.389-0.53,0.936-0.817,1.499-0.789c0.564,0.029,1.078,0.37,1.411,0.937l0.262,0.447
					c0.117,0.2,0.219,0.243,0.238,0.243c0.019,0,0.121-0.043,0.238-0.243l0.262-0.446c0.34-0.579,0.851-0.912,1.404-0.912
					c0.553,0,1.065,0.332,1.405,0.911l0.262,0.447c0.134,0.229,0.279,0.316,0.361,0.321c0.087,0.006,0.177-0.092,0.221-0.15
					l0.883-1.162l1.077,0.819l-0.883,1.162C85.939-11.044,85.472-10.798,84.981-10.798z"/>
			</g>
		</g>
	</g>
</g>
<g id="nuve">
	<path fill="#010101" d="M-12.967-47.191h-16.994c-1.586,0-2.875-1.29-2.875-2.875c0-1.345,0.928-2.478,2.178-2.79
		c0.558-1.394,1.847-2.392,3.351-2.571c0.159-3.236,2.841-5.821,6.116-5.821c2.4,0,4.542,1.411,5.536,3.506
		c0.816-0.446,1.736-0.684,2.687-0.684c3.097,0,5.618,2.52,5.618,5.617S-9.87-47.191-12.967-47.191L-12.967-47.191z M-29.98-50.959
		c-0.483,0.01-0.874,0.407-0.874,0.892c0,0.492,0.4,0.892,0.892,0.892h16.994c2.004,0,3.634-1.63,3.634-3.634
		s-1.63-3.634-3.634-3.634c-0.939,0-1.83,0.358-2.51,1.007l-1.299,1.241l-0.358-1.761c-0.39-1.918-2.096-3.311-4.057-3.311
		c-2.283,0-4.141,1.857-4.141,4.141c0,0.186,0.014,0.378,0.041,0.572l0.186,1.347l-1.34-0.235c-0.127-0.022-0.253-0.034-0.376-0.034
		c-1.02,0-1.906,0.724-2.107,1.722l-0.166,0.822l-0.839-0.027C-29.947-50.957-29.964-50.958-29.98-50.959L-29.98-50.959z"/>
</g>
</svg>
